<svg xmlns="http://www.w3.org/2000/svg" viewBox="0 0 39.9 39.9" width="39.9" height="39.9">
  <path d="M 36.718 22.871 L 35.031 22.871 C 35.031 16.112 29.751 10.645 23.223 10.645 L 21.536 10.645 L 21.536 8.428 C 22.548 7.834 23.223 6.699 23.223 5.406 C 23.223 3.485 21.721 1.913 19.849 1.913 C 17.977 1.913 16.475 3.485 16.475 5.406 C 16.475 6.699 17.15 7.834 18.162 8.428 L 18.162 10.645 L 16.475 10.645 C 9.947 10.645 4.667 16.112 4.667 22.871 L 2.98 22.871 C 2.052 22.871 1.293 23.657 1.293 24.618 L 1.293 29.857 C 1.293 30.817 2.052 31.603 2.98 31.603 L 4.667 31.603 L 4.667 33.349 C 4.667 35.289 6.185 36.843 8.041 36.843 L 31.657 36.843 C 33.53 36.843 35.031 35.289 35.031 33.349 L 35.031 31.603 L 36.718 31.603 C 37.645 31.603 38.404 30.817 38.404 29.857 L 38.404 24.618 C 38.404 23.657 37.645 22.871 36.718 22.871 M 16.121 27.237 C 15.463 25.7 13.996 24.618 12.258 24.618 C 10.52 24.618 9.053 25.7 8.395 27.237 C 8.176 26.696 8.041 26.12 8.041 25.491 C 8.041 23.081 9.93 21.125 12.258 21.125 C 14.586 21.125 16.475 23.081 16.475 25.491 C 16.475 26.12 16.34 26.696 16.121 27.237 M 31.303 27.237 C 30.645 25.7 29.127 24.618 27.44 24.618 C 25.753 24.618 24.235 25.7 23.577 27.237 C 23.357 26.696 23.223 26.12 23.223 25.491 C 23.223 23.081 25.112 21.125 27.44 21.125 C 29.767 21.125 31.657 23.081 31.657 25.491 C 31.657 26.12 31.522 26.696 31.303 27.237 Z" style="fill: rgb(0, 188, 212);"/>
</svg>
